<?xml version="1.0" encoding="UTF-8"?>
<!DOCTYPE svg PUBLIC "-//W3C//DTD SVG 1.1//EN" "http://www.w3.org/Graphics/SVG/1.1/DTD/svg11.dtd">
<!-- Creator: CorelDRAW 2021 (64-Bit) -->
<svg xmlns="http://www.w3.org/2000/svg" xml:space="preserve" width="236.06mm" height="233.216mm" version="1.1" style="shape-rendering:geometricPrecision; text-rendering:geometricPrecision; image-rendering:optimizeQuality; fill-rule:evenodd; clip-rule:evenodd"
viewBox="0 0 25861.34 25549.78"
 xmlns:xlink="http://www.w3.org/1999/xlink"
 xmlns:xodm="http://www.corel.com/coreldraw/odm/2003">
 <defs>
  <style type="text/css">
   <![CDATA[
    .str0 {stroke:black;stroke-width:21.91;stroke-linejoin:bevel;stroke-miterlimit:22.9256}
    .fil0 {fill:black}
   ]]>
  </style>
 </defs>
 <g id="Layer_x0020_1">
  <metadata id="CorelCorpID_0Corel-Layer"/>
  <path class="fil0 str0" d="M12711.39 4176.53c25.44,0 51.88,-0.67 76.86,4.98 140.75,31.9 255.69,185.6 328.09,302.52 174.34,281.58 291.55,644.85 214.67,974.82 654.23,1618.15 613.01,3269.74 97.27,4919.49 -71.62,235.79 -153.68,467.87 -246.22,696.24 -68.35,166.2 -187.6,347.02 -220.51,520.48 16.98,27.44 25.96,44.31 59.73,54.15 115.88,33.64 361.36,-162.15 448.54,-227.98 491.09,-370.47 863.92,-927.85 1225.34,-1419.61 232.66,-316.58 461.28,-640.72 716.91,-939.26 114.52,-131.27 234.25,-257.56 359.22,-378.88 124.99,-121.35 254.77,-237.32 389.33,-347.91 134.57,-110.58 273.48,-215.43 416.74,-314.52 143.25,-99.09 290.37,-192.09 441.34,-278.98 232.02,-131.66 477.62,-234.5 714.81,-355.74 205,-104.79 371.41,-266.15 585.29,-355.85 294.19,-123.35 683.42,-147.16 979.75,-18.2 80.28,34.97 150.37,91.65 179.02,177.04 12.94,38.54 11.62,77.07 -9.47,112.51 -129.44,217.89 -919.43,258.05 -1147.3,251.59 -132.81,-3.79 -326.67,-53.53 -451.02,-21.19 -3.57,0.89 -7.1,2.1 -10.67,3.16 -885.73,306.21 -1849.92,1051.93 -2433.95,1776.93 -656.45,814.75 -1303.36,2002.13 -2242.47,2498.84 41.43,174.77 78.51,353.96 35.29,532.19 -38.69,159.52 -188.5,341.45 -327.04,425.26 -157.36,95.22 -354.85,107.26 -530.25,59.58 -179.5,-48.85 -315.83,-166.52 -404.8,-327.83 -88.6,-160.74 -104.83,-345.43 -52.16,-520.79 6.95,-23.38 15.06,-46.36 24.34,-68.93 9.29,-22.54 19.69,-44.57 31.18,-66.09 11.5,-21.52 24.05,-42.41 37.65,-62.68 13.63,-20.22 28.23,-39.72 43.8,-58.51 15.6,-18.76 32.09,-36.68 49.47,-53.79 17.39,-17.1 35.59,-33.29 54.62,-48.58 19.03,-15.25 38.79,-29.51 59.26,-42.8 20.48,-13.25 41.55,-25.45 63.26,-36.59 176.6,-89.02 371.15,-91.23 556.96,-33.07 82.81,-286.71 221.88,-564.38 327.72,-844.26 104.21,-276.21 192.9,-557.32 266.1,-843.35 73.23,-285.99 130.48,-575.16 171.77,-867.49 126.82,-937.63 74.04,-1879.94 -193.33,-2788.7 -63.88,-217.2 -136.38,-451.02 -247.59,-648.24 -88.6,-157.16 -237.75,-269.89 -345.75,-413.63 -152.31,-202.74 -257.47,-465.16 -216.2,-722.45 14.83,-92.34 48.12,-150.56 124.41,-203.87zm61.67 179.1c17.3,8.3 20.3,9.28 37.91,19.98 157.21,95.66 287.66,414.98 332.09,586.96 18.03,69.77 59.04,218.68 22.97,280.35 -169.83,-135.28 -320.3,-320.41 -392.55,-527 -41.64,-119.14 -55.57,-243.81 -0.42,-360.29zm6030.63 2744.72c113.3,-9.62 379.71,-4.83 468.89,70.15 4.26,19.24 11.25,24.65 -2.53,41.79 -95.48,118.99 -511,154.32 -664.22,169.14 -184.39,5.78 -369.62,-6.78 -553.86,-15.03 249.27,-157.37 455.44,-243.86 751.72,-266.05zm-6655.79 5691.44c0,0 19.51,7.26 19.51,7.26 -0.37,23.61 -2.63,44.74 -6.52,68.14 -49.43,300.9 -200.33,577.99 -346.54,841.82 -660.28,1190.91 -1676.99,2199.67 -2643.8,3146.76 -381.46,373.68 -773.64,737.2 -1131.11,1134.38 -166.82,185.35 -324.79,377.95 -473.94,577.78 -149.15,199.84 -288.85,406.06 -419.1,618.7 -372.68,607.43 -720.48,1252.31 -964.5,1923.42 -54.94,151.16 -319.1,997.09 -384.09,1043.94 -39.95,-11.99 -58.89,-45.74 -83.07,-77.4 -45.68,-103.52 -81.44,-208 -102.47,-319.4 -61.73,-327.15 -16.94,-675.48 66.46,-994.52 231.87,-887.37 937.31,-2105.29 1458.53,-2868.05 341.17,-499.33 717.05,-981.68 1089.47,-1458.1 303.53,-388.24 605.65,-780.47 929.22,-1152.46 297.59,-342.22 614.48,-660.01 938.94,-976.21 425.41,-414.53 853.56,-813.02 1337.59,-1159.41 128.4,-91.85 257.38,-189.97 399.23,-260.16 103.9,-51.42 203.11,-75.29 316.21,-96.48zm9857.97 -2825.5c255.84,-5.93 511.06,4.08 765.64,30.02 898.99,88.65 2203.09,404.65 2790.18,1129.91 197.9,244.49 317.15,559.91 282.92,876.85 -70.36,650.44 -834.58,1078.54 -1294.69,1466.15 -517.06,435.5 -1043.94,892.2 -1445.38,1441.44 -681.62,932.52 -1202.89,2233.05 -2111.86,2955.15 -263.41,209.22 -572.1,348.13 -897.83,428.05 -929.95,228.19 -2261.5,63.41 -3208.96,-45.96 240.76,277.87 431.04,671.74 541.71,1020.07 244.08,767.85 294.55,1596.75 -90.27,2330.17 -544.56,1037.74 -1670.94,1772.2 -2824.08,1928.21 -190.17,25.76 -759.6,2.37 -861.39,40.69 -66.25,24.92 -134.97,105.31 -165.42,167.78 -124.66,255.58 159.58,656.44 241.96,908.76 77.45,237.18 2.85,485.51 -109.41,698.98 -44.38,84.33 -89.75,167.04 -185.76,196.64 -108.26,-28.49 -423.51,-659.22 -507.06,-792.4 -78.48,-125.94 -165.03,-246.07 -259.63,-360.37 -417.16,-502.81 -984.47,-799.56 -1567.2,-1066.76 -299.07,-137.18 -600.87,-275.57 -864.75,-474.94 -971.23,-733.79 -1421.15,-2094.73 -1578.51,-3254.44 -83.13,-612.54 -75.19,-1260.46 57.57,-1864.8 25.92,-118.03 50.48,-247.59 109.78,-354.11 82.76,-148.64 250.43,-250.22 353.28,-387.97 0,0 12.57,-17.04 12.57,-17.04 -37.43,284.13 -52.79,578.41 -67.78,864.6 -82.54,1576.19 132.92,3206.85 1231.03,4421.46 402.42,445.07 972.53,886.11 1595.33,913.66 242.22,10.73 519.26,-38.6 700.97,-211.06 291.6,-276.71 278.98,-771.42 297.59,-1141.52 11.01,-209.75 20.85,-419.58 29.5,-629.46 9.82,10.09 19.73,20.08 29.75,29.96 299.81,298.75 962.76,948.26 1405.21,938.26 99.79,-2.27 194.64,-32.87 263.37,-107.94 97.59,-106.68 118.35,-258.05 111.47,-397.08 -43.8,-880.53 -810.28,-2125.73 -1400.26,-2758.93 -320.52,-343.98 -685.47,-636.88 -1032.38,-953.09 175.72,314.99 389.4,728.36 302.7,1102.04 -4.56,20.22 -10.11,40.15 -16.67,59.78 -6.55,19.66 -14.1,38.92 -22.66,57.78 -8.52,18.9 -17.98,37.3 -28.4,55.2 -10.41,17.91 -21.69,35.25 -33.85,52.01 -12.17,16.79 -25.15,32.9 -38.97,48.32 -13.8,15.46 -28.35,30.16 -43.64,44.11 -15.32,13.99 -31.29,27.15 -47.9,39.48 -16.65,12.35 -33.89,23.81 -51.69,34.39 -199.32,118.72 -433.51,111.73 -651.7,60.57 117.35,134.65 225.82,280.35 314.67,435.46 254.64,444.44 536.2,1235.11 589.67,1736.92 29.28,274.98 53.05,632.3 -137.71,857.76 -118.99,140.7 -295.75,214.57 -476.41,231.03 -381.72,34.81 -787.05,-139.81 -1075.44,-380.93 -771.53,-645.14 -630.78,-1510.63 -706.97,-2402.83 -11.3,-507.13 -137.96,-1177.86 -274.56,-1670.88 -76.18,-275.05 -171.19,-544.92 -237.07,-822.86 -67.51,-284.86 -105.05,-574.36 -140.38,-864.64 251.54,-221.93 472.57,-491.71 710.75,-729.48 264.53,84.76 547.03,140.7 817.55,203.79 459.71,104.6 918.08,214.74 1375.13,330.4 0,0 4556.59,1179.6 4556.59,1179.6 465.31,121.6 929.27,245.85 1396.9,358.69 142.64,34.43 302.8,95.59 448.44,97.21 -15.14,-25.39 -19.35,-21.66 -48.16,-30.13 -194.75,-57.2 -367.1,-146.53 -555.29,-218.67 -790.83,-303 -1558.53,-659.59 -2352.4,-956.3 -392.61,-146.69 -785.26,-301.9 -1185.01,-428.19 -1317.51,-416.26 -2686.49,-700.18 -4040.17,-970.01 119.46,-119.46 234.34,-243.91 367.94,-347.97 273.19,-212.68 627.79,-403.49 924.95,-586.41 415.11,-255.48 830.27,-518.48 1254.32,-758.28 464.68,-262.79 946.98,-503.81 1428.81,-733.84 585.19,-279.46 1196.47,-507.96 1809.43,-717.06 2589.43,-883.37 5290.37,-1210.14 7980.76,-593.98 376.93,86.34 747.87,176.2 1112.87,305.48 -20.83,-288.5 -97.74,-536.14 -283.82,-762.7 -101.22,-123.24 -226.88,-245.64 -370.62,-317.99 -331.83,-167.04 -1362.1,-309.05 -1759.69,-345.54 -2352.3,-216.1 -4462.43,236.34 -6628.03,1130.43 -506.79,206.88 -1004.68,433.3 -1493.69,679.26 -489.05,245.93 -967.69,510.66 -1435.91,794.2 -790.94,472.99 -1582.29,973.22 -2292.1,1562.79 80.39,-163.42 365.32,-610.02 487.61,-743.04 147.95,-161 400.39,-276.46 585.51,-395.5 216,-138.9 427.51,-285.18 642.4,-425.94 334.15,-218.69 673.65,-428.74 1018.49,-630.14 344.84,-201.42 694.58,-393.93 1049.2,-577.58 354.63,-183.6 713.7,-358.08 1077.22,-523.42 363.53,-165.34 731.02,-321.34 1102.46,-467.99 554.23,-218.25 1118.86,-421.1 1694.92,-574.58 247.29,-66.57 496.3,-125.91 747.03,-178.04 250.77,-52.08 502.81,-96.88 756.13,-134.39 253.35,-37.47 507.57,-67.57 762.65,-90.33 255.07,-22.74 510.6,-38.08 766.59,-46zm-1292.11 3990.9c470.3,93.69 1218.71,281.19 1635.33,499.81 -68.45,9.58 -147.95,2.31 -217.45,1.48 -516.22,-6.27 -996.1,-211.58 -1417.88,-501.29zm-4782.05 8071.19c61.51,-4.32 115.62,-5.05 173.72,18.39 9.36,3.82 18.49,8.1 27.4,12.83 8.94,4.7 17.59,9.85 25.96,15.46 8.41,5.61 16.53,11.6 24.35,17.99 7.78,6.41 15.23,13.19 22.34,20.34 7.15,7.15 13.9,14.65 20.25,22.5 6.38,7.82 12.36,15.93 17.93,24.34 5.53,8.45 10.65,17.15 15.35,26.08 4.7,8.94 8.92,18.09 12.68,27.44 3.6,8.97 6.74,18.1 9.41,27.39 2.66,9.26 4.82,18.65 6.46,28.19 1.64,9.5 2.8,19.06 3.47,28.7 0.62,9.64 0.74,19.3 0.36,28.98 -0.35,9.64 -1.23,19.24 -2.63,28.81 -1.4,9.56 -3.29,19.03 -5.67,28.39 -2.39,9.36 -5.26,18.56 -8.62,27.61 -3.36,9.04 -7.21,17.89 -11.51,26.56 -40.75,81.02 -104.37,123.03 -187.07,153.52 -49.11,3.42 -99.27,8.15 -147.8,-2.62 -74.4,-16.47 -143.01,-68.2 -179.77,-134.82 -4.73,-8.51 -9.01,-17.27 -12.83,-26.24 -3.78,-8.97 -7.11,-18.12 -9.99,-27.44 -2.87,-9.32 -5.24,-18.76 -7.1,-28.29 -1.88,-9.56 -3.28,-19.2 -4.15,-28.92 -0.84,-9.71 -1.18,-19.43 -1.05,-29.17 0.14,-9.75 0.79,-19.46 1.95,-29.13 1.16,-9.67 2.8,-19.28 4.94,-28.81 2.17,-9.5 4.82,-18.85 7.94,-28.08 34.81,-102.37 110.93,-153.79 203.68,-200zm-2531.38 1137.48c26.6,20.61 28.23,21.77 28.34,58.04 0.26,124.66 -152.12,408.43 -177.57,577.42 -43.69,290.34 198.33,651.02 268.57,935.73 -114.78,-193.48 -243.54,-354 -400.69,-514.48 -130.68,-128.72 -266.72,-251.46 -408.11,-368.25 -128.62,-105.79 -267.78,-205.48 -382.73,-326.14 55.17,4.03 110.36,7.62 165.57,10.78 423.68,23.6 603.92,-102.06 906.61,-373.1zm9821.63 -11296.82c99.58,-8.47 182.18,-2 272.2,45.42 13.88,7.3 27.36,15.28 40.43,23.98 13.08,8.69 25.66,18.01 37.75,27.97 12.13,9.99 23.7,20.57 34.71,31.76 11.04,11.14 21.47,22.83 31.28,35.07 9.82,12.27 18.99,24.99 27.5,38.17 8.52,13.18 16.33,26.76 23.46,40.75 7.11,13.98 13.5,28.29 19.14,42.9 5.67,14.65 10.57,29.55 14.67,44.69 30.07,114.16 9.67,237.66 -49.47,339.19 -68.57,117.66 -166.88,174.14 -295.45,206.58 -93.43,8.47 -171.09,4.26 -257.53,-36.54 -14.23,-6.69 -28.06,-14.11 -41.48,-22.25 -13.46,-8.1 -26.48,-16.87 -39.07,-26.34 -12.55,-9.43 -24.61,-19.49 -36.17,-30.18 -11.54,-10.66 -22.49,-21.89 -32.87,-33.7 -10.41,-11.78 -20.17,-24.07 -29.28,-36.85 -9.15,-12.8 -17.63,-26.01 -25.45,-39.65 -7.78,-13.67 -14.84,-27.7 -21.19,-42.07 -6.38,-14.37 -12.01,-29.02 -16.87,-43.95 -4.28,-13.74 -7.89,-27.65 -10.83,-41.74 -2.91,-14.06 -5.14,-28.24 -6.68,-42.54 -1.53,-14.3 -2.38,-28.66 -2.52,-43.07 -0.14,-14.37 0.42,-28.73 1.69,-43.05 1.26,-14.34 3.22,-28.57 5.88,-42.69 2.63,-14.17 5.96,-28.16 9.99,-41.96 4.03,-13.81 8.71,-27.4 14.03,-40.75 5.37,-13.35 11.36,-26.41 17.99,-39.17 68.56,-131.82 177.87,-189.97 314.16,-229.98zm-3168.74 4124.76c225.09,124.3 484.78,400.49 594.45,632.41 107.36,227.08 125.45,500.33 38.69,736.99 -11.25,30.04 -23.97,59.44 -38.17,88.22 -14.17,28.78 -29.72,56.77 -46.69,83.97 -16.93,27.24 -35.19,53.56 -54.79,78.97 -19.56,25.42 -40.33,49.81 -62.3,73.19 -21.98,23.35 -45.07,45.55 -69.29,66.62 -24.19,21.02 -49.35,40.83 -75.5,59.41 -26.18,18.54 -53.21,35.75 -81.08,51.63 -27.86,15.87 -56.45,30.34 -85.75,43.37 -269.62,122.77 -565.9,127.5 -841.78,26.24 -198.59,-83.02 -376.62,-195.43 -558.91,-308.53 354.65,64.46 738.31,78.55 1062.61,-104.53 203.58,-114.94 354.54,-292.76 415.53,-520.16 94.8,-353.49 -20.29,-702.13 -197.01,-1007.82zm1054.25 -1737.98c3.78,1.11 7.57,2.21 11.36,3.36 339.44,106.16 644.19,341.07 805.97,659.34 134.71,264.93 169.1,580.88 74.61,864.53 -74.55,223.78 -229.29,403.02 -442.18,505.65 -285.71,137.76 -592.93,96.01 -882.26,-5.41 -218.78,-79.66 -422.83,-230.24 -617.69,-354.96 146.47,34.33 290.12,53.36 440.76,55.41 291.86,3.94 565.38,-55.68 779.31,-266.1 155.74,-153.21 245.02,-348.23 244.92,-568.89 -0.11,-339.87 -177.25,-659.08 -414.79,-892.94zm-4694.4 4128.55c24.98,15.57 43.07,35.44 63.25,56.46 528.67,551.81 820.07,1141.9 799.88,1916.64 -10.04,385.77 -81.07,1029.17 -383.98,1304.94 -108.05,98.27 -236.81,142.54 -382.3,133.39 -276.14,-17.4 -540.34,-167.88 -723.85,-368.46 -135.5,-168.67 -188.71,-370.94 -253.06,-573.58 138.44,122.67 282.82,237.71 449.71,319.47 197.54,96.74 456.91,165.93 671.42,87.64 132.49,-48.37 229.13,-155.47 286.87,-281.72 217.83,-476.52 -80.24,-1525.92 -271.41,-2014.9 -75.35,-192.71 -182.45,-373.94 -252.27,-567.8 0,0 -4.26,-12.09 -4.26,-12.09zm-4882.73 -1246.21c655.12,175.45 1302.84,375.67 1959.65,546.86 670.47,174.77 1341.22,317.26 2018.11,461.86 103.85,283.6 208.58,601.18 223.68,903.86 8.78,176.29 -43.76,314.58 -161.79,443.14 -13.11,11.74 -26.68,22.91 -40.7,33.49 -14.02,10.63 -28.46,20.65 -43.32,30.07 -14.83,9.43 -30.04,18.23 -45.64,26.4 -15.57,8.16 -31.44,15.68 -47.63,22.55 -16.19,6.87 -32.66,13.06 -49.38,18.57 -16.69,5.53 -33.58,10.35 -50.68,14.45 -17.11,4.14 -34.36,7.56 -51.74,10.25 -17.39,2.71 -34.84,4.68 -52.37,5.95 -475.94,31.22 -1103.09,-365.69 -1453.63,-672.38 -175.24,-153.36 -329.51,-331.98 -498.81,-492.24 -196.72,-184.69 -398.72,-363.37 -606.02,-536.04 -225.39,-183.39 -457.17,-358.31 -695.35,-524.73 -133.28,-94.59 -282.55,-184.03 -404.37,-292.07zm-1807.43 -542.4c286.72,83.57 572.6,169.94 857.6,259.11 180.08,55.95 373.94,103.85 542.72,189.29 224.93,113.77 452.23,288.28 647.4,448.44 361.94,296.96 730.14,776.95 772.01,1259.2 16.19,186.33 -16.56,341.81 -138.18,486.72 -82.65,71.19 -178.34,116.4 -286.08,134.34 -301.8,50.26 -641.61,-140.49 -876.38,-311.37 -1017.38,-740.4 -1323.86,-1246.94 -1519.09,-2465.71zm5960.07 1568.16c139.22,26.71 280.24,43.74 419.52,70.93 39.23,97.93 76.82,196.5 112.79,295.7 155.58,431.72 566.22,1639.18 355.27,2062.22 -50.69,101.63 -132.02,179.61 -241.92,212.9 -273.78,82.91 -726.53,-77.24 -967.55,-206.06 48.21,105.11 89.12,205.74 111.62,319.68 30.39,153.64 32.71,313.99 34.81,470.21 5.74,422.42 -24.81,792.25 -265.72,1151.79 -168.04,250.79 -396.33,432.34 -698.03,488.13 -17.18,3.16 -34.42,5.89 -51.73,8.21 -17.35,2.28 -34.72,4.14 -52.1,5.58 -17.42,1.44 -34.88,2.42 -52.37,2.95 -17.46,0.56 -34.91,0.66 -52.38,0.31 -17.48,-0.35 -34.95,-1.12 -52.37,-2.31 -17.42,-1.23 -34.81,-2.89 -52.16,-5 -17.35,-2.07 -34.63,-4.59 -51.84,-7.57 -17.24,-2.95 -34.38,-6.32 -51.41,-10.14 -17.07,-3.82 -34.03,-8.09 -50.84,-12.77 -16.83,-4.67 -33.53,-9.76 -50.11,-15.3 -16.58,-5.5 -33.02,-11.43 -49.32,-17.77 -16.26,-6.34 -32.37,-13.09 -48.31,-20.25 -15.95,-7.15 -31.7,-14.7 -47.27,-22.66 -15.57,-7.95 -30.89,-16.3 -46,-25.03 -15.14,-8.69 -30.06,-17.78 -44.75,-27.29 -14.68,-9.47 -29.12,-19.29 -43.32,-29.49 -399.81,-281.98 -548.24,-736.04 -625.95,-1198.73 0,0 -5.05,-48.21 -5.05,-48.21 0,0 10.68,-5.2 10.68,-5.2 87.96,84.43 148.37,205.84 222.09,303.53 271.35,359.9 654.07,685.15 1115.07,747.56 182.19,24.65 356.32,6.15 505.49,-111.05 136.6,-107.36 215.89,-254.84 235.61,-426.67 96.53,-841.99 -552.97,-1971.48 -1067.45,-2614.45 55.03,27.41 110.47,53.98 166.3,79.7 335.98,152.38 788.36,299.65 1151.73,158.9 181.5,-70.3 322.83,-202.27 401.44,-381.3 166.83,-379.62 -29.71,-835.83 -174.45,-1190.99zm-408.75 -5072.39c134.76,-13.77 261.68,8.73 375.52,84.82 141.96,94.85 227.29,244.33 256.52,410.37 43.07,244.75 -24.91,477.73 -165.88,677.68 303.64,9.05 615.74,76.87 847.61,285.19 125.3,112.57 212.11,264.36 216,435.61 3.52,154.53 -61.42,290.49 -170.41,397.86 -231.24,227.66 -561.17,293.29 -873.75,295.18 -646.35,-2.42 -1092.21,-540.41 -1713.99,-601.92 271.73,-503.07 335.93,-1109.51 653.81,-1584.71 143.96,-215.25 317.78,-348.01 574.58,-400.07zm4423.93 -1114.6c2.53,-0.43 5.11,-0.95 7.62,-1.22 141.39,-13.88 285.4,-8.83 423.42,25.67 241.81,60.35 480.51,178.66 708.86,278.5 653.34,285.72 1294.8,584.94 1891.14,979.53 290.76,192.44 549.86,425.73 826.68,636.36 -319.25,-107.31 -659.33,-177.5 -986.21,-259.84 -665.43,-171.71 -1335.29,-324.05 -2009.55,-457 -1011.82,-191.34 -3149.7,-432.99 -4105.62,-41.64 -65.89,-110.26 -141.23,-200.9 -232.08,-291.5 862.22,-393.33 2533.06,-781.04 3475.73,-868.85zm-9641.91 6204.39c52.42,31.5 397.4,415.79 496.5,504.8 191.6,172.04 404.18,313.05 608.01,469.26 551.23,422.42 880.43,1001.41 1117.3,1641.55 81.8,221.26 158.21,452.12 187.49,686.73 31.29,250.58 7.62,464.57 -152.01,668.63 -57.78,60.16 -132.23,101.43 -211.94,125.09 -295.28,87.6 -644.71,-35.22 -903.29,-176.45 -267.26,-146.01 -508.11,-361.58 -628.1,-646.55 -160.68,-381.46 -142.65,-1225.02 -193.97,-1680.72 -30.07,-269.55 -71.83,-537.26 -125.3,-803.13 -53.42,-265.91 -118.32,-528.98 -194.7,-789.21zm7351.4 -4824.06c118.98,-9.3 242.11,-4 361.31,1.47 716.44,32.71 2002.5,236.24 2495.01,784.68 151.47,168.72 258.32,388.35 239.7,619.9 -13.46,167.15 -94.91,316.79 -222.31,424.78 -263.73,223.5 -648.34,241.17 -976.12,213.15 -356.74,-27.08 -695.5,-174.77 -1028.69,-295.07 -271.2,-97.95 -537.5,-190.44 -816.28,-264.84 -49.85,-195.32 -119.98,-360.53 -272.15,-499.43 -265.99,-242.91 -637.82,-340.87 -992.14,-324.09 95.89,-158.05 176.71,-318.57 248.9,-488.56 304.8,-125.2 637.14,-155.01 962.77,-171.99zm-3291.41 403.49c0,0 10.78,25.98 10.78,25.98 -99,484.03 -259.79,979.69 -458.8,1431.33 194.38,64.99 390.51,118.35 577.32,204.53 263.52,121.56 509.11,279.72 774.9,396.29 531.72,233.19 1090.58,273.67 1634.77,60.15 340.55,-133.6 626.94,-385.29 773.11,-723.26 505.8,165.94 1070.65,429.46 1403.2,861.02 134.29,174.25 230.09,379.35 196.49,605.02 -27.07,181.44 -132.7,334.14 -281.13,438.87 -272.1,191.91 -630.26,189.97 -944.05,136.49 -434.77,-111.73 -859.5,-289.08 -1282.86,-438.24 -488.41,-169.94 -981.28,-325.87 -1478.55,-467.8 -791.23,-223.92 -1586.11,-434.06 -2384.64,-630.46 -385.19,-93.33 -780.84,-164.78 -1161.61,-273.25 885.49,-523.23 1759.19,-1065.45 2621.08,-1626.67zm-7049.65 -13745.92c60.84,-5.2 120.3,-4.71 181.19,-1.28 670,37.79 1263.04,535.02 1689.33,1014.83 1285.75,1447.22 2329.27,4000.74 2716.15,5887.15 203.21,990.84 297.33,2024.94 236.7,3035.39 -13.25,237.62 -34.81,474.5 -64.67,710.65 -29.83,236.11 -67.9,470.91 -114.2,704.39 -46.28,233.45 -100.67,465 -163.2,694.66 -62.5,229.63 -132.98,456.81 -211.42,681.52 -46.95,132.18 -87.92,297.65 -165.47,413.9 -81.86,122.67 -254.17,219.1 -366.57,316.68 -140.7,122.09 -275.41,251.65 -414.96,375.31 110.74,-263.95 164.94,-580.42 220.47,-860.71 61.42,-310.21 120.88,-620.73 154.11,-935.42 88.38,-836.42 52.47,-1906.02 -234.45,-2701.37 20.61,577.1 -307.01,1013.19 -580.47,1490.85 -93.02,165.86 -175.63,336.77 -247.8,512.69 -53.21,127.46 -108.21,259.53 -132.55,395.86 -226.61,-142.43 -451.97,-293.39 -701.61,-393.03 -295.02,-117.72 -605.91,-188.22 -894.3,-323.87 -436.98,-205.53 -814.65,-503.6 -981.43,-970.44 -102.37,-286.49 -132.08,-612.59 3.16,-893.88 84.65,-176.09 230.97,-319.1 418.21,-382.14 371.67,-125.19 705.65,75.13 1029.59,231.76 -511.22,-483.2 -978.54,-878.9 -1645.92,-1139.37 -362.26,-141.32 -817.65,-225.88 -1186.8,-59.88 -174.61,78.5 -316.47,215.15 -380.82,398.33 -344.08,979.12 1113.19,1837.67 1745.96,2334.06 392.4,307.79 808.76,661.02 1155.58,1018.7 701.29,723.17 1446.21,1745.24 1892.92,2655.52 -46.21,48.74 -87.44,102.37 -129.77,154.47 -80.23,-159.41 -164.65,-316.59 -253.27,-471.52 -88.61,-154.93 -181.29,-307.39 -278.04,-457.38 -96.74,-149.96 -197.43,-297.24 -302.06,-441.86 -104.59,-144.62 -212.97,-286.34 -325.13,-425.15 -112.17,-138.85 -227.95,-274.59 -347.34,-407.22 -119.42,-132.67 -242.28,-262.05 -368.57,-388.13 -126.29,-126.12 -255.86,-248.78 -388.71,-367.95 -132.85,-119.22 -268.78,-234.77 -407.79,-346.71 -535.19,-416.94 -1107.83,-784.89 -1684.29,-1141.63 -471.63,-291.92 -971.7,-559.65 -1379.76,-939.1 160.78,334.39 431.49,619.74 667.32,903.29 543.66,653.6 1113.08,1272.02 1695.39,1890.45 959.08,1018.64 1935.03,2027.05 2731.07,3182.3 -9.31,14.82 -18.35,29.17 -28.97,43.05 -314.74,411.64 -660.81,800.87 -980.11,1209.77 -164.57,210.21 -327.77,421.45 -489.61,633.73 -106.27,138.97 -214.47,307.17 -344.34,423.42 -181.93,162.84 -457.54,274.88 -676.42,382.24 -890.41,436.88 -2385.6,1014.39 -3367.78,669.28 -325.13,-114.21 -603.72,-321.16 -902.51,-487.03 -762.69,-423.36 -1611.73,-431.99 -2451.73,-315.42 44.02,-446.87 227.99,-798.04 704.36,-887.27 232.86,-43.64 520.29,0.26 691.6,-200.58 96.4,-112.99 133.51,-268.57 117.65,-413.84 -32.52,-297.81 -206.2,-589.41 -312.92,-867.38 -40.14,-102.64 -76.67,-206.53 -109.58,-311.69 -32.92,-105.15 -62.15,-211.31 -87.69,-318.46 -25.55,-107.19 -47.34,-215.15 -65.38,-323.89 -18.04,-108.7 -32.3,-217.88 -42.75,-327.57 -73.41,-782.1 105.94,-1619.67 617.71,-2231.57 706.62,-844.88 2043.65,-1222.13 3108.96,-1319.29 -159.12,-187.82 -299.52,-407.75 -434.07,-614.43 -351.95,-540.66 -699.75,-1109.66 -773.3,-1765.21 -124.92,-1113.3 412.31,-2230.38 1014.33,-3135.29 301.43,-453.13 647.23,-913.13 842.99,-1424.21 352.75,-920.87 113.67,-1931.93 769.54,-2752.07 266.88,-333.76 581.2,-571.48 1014.23,-621.02zm2227.28 3150.92c50.32,-2.8 98.58,-2.66 146.69,14.63 74.29,26.7 137.02,82.17 167.19,155.74 3.3,8.02 6.19,16.18 8.68,24.49 2.53,8.3 4.61,16.72 6.26,25.23 1.69,8.51 2.94,17.09 3.74,25.72 0.84,8.63 1.25,17.29 1.22,25.96 -0.03,8.67 -0.49,17.32 -1.37,25.95 -0.88,8.62 -2.18,17.19 -3.89,25.69 -1.75,8.5 -3.9,16.89 -6.42,25.19 -2.55,8.29 -5.52,16.43 -8.88,24.43 -39.38,94.23 -108.21,133.38 -199,170.13 -42.75,5.55 -84.24,3.91 -125.45,-9.38 -76.29,-24.59 -140.39,-76.56 -175.41,-149.17 -4,-8.1 -7.57,-16.39 -10.73,-24.86 -3.16,-8.47 -5.87,-17.08 -8.15,-25.82 -2.28,-8.74 -4.1,-17.58 -5.47,-26.51 -1.4,-8.94 -2.33,-17.91 -2.78,-26.94 -0.46,-9.03 -0.46,-18.05 0,-27.08 0.45,-9.03 1.36,-18.01 2.73,-26.94 1.37,-8.94 3.18,-17.78 5.42,-26.52 2.28,-8.75 4.98,-17.36 8.14,-25.83 36.39,-97.76 105.95,-135.36 197.49,-174.1zm-7858.18 9583.24c59.92,-1.42 121.07,4.42 179.06,20.03 163.31,43.96 279.11,141.28 363.58,284.56 -77.41,106.68 -165.02,166.15 -280.28,224.94 -108.03,38.64 -219.66,51.68 -327.5,4.31 -73.57,-32.33 -136.11,-92.38 -162.59,-169.2 -2.84,-8.21 -5.25,-16.51 -7.24,-24.92 -1.99,-8.45 -3.55,-16.96 -4.68,-25.55 -1.13,-8.59 -1.82,-17.23 -2.07,-25.92 -0.25,-8.67 -0.07,-17.32 0.56,-25.98 0.62,-8.62 1.69,-17.21 3.19,-25.77 1.5,-8.51 3.43,-16.95 5.78,-25.29 2.36,-8.35 5.13,-16.55 8.33,-24.61 3.19,-8.06 6.77,-15.95 10.76,-23.66 44.5,-85.18 124.3,-134.65 213.12,-162.94zm292.45 3229.15c104.82,19.29 210.99,31.97 316.59,46.32 -117.54,70.72 -191.75,148.74 -238.72,280.82 -111.76,314.27 13.57,587.09 150.7,867.17 -242.3,-103.94 -519.65,-170.3 -778.87,-215.42 -235.03,-41.21 -472.34,-34.07 -709.7,-37.85 104.13,-40.49 206.75,-70.83 317.2,-88.97 269.02,-44.22 570.11,-24.44 769.92,-244.54 150.58,-165.89 183.74,-392.39 172.88,-607.54zm6673.1 -14230.83c129.45,-7.07 254,8.95 368.63,73.19 18.19,10.24 35.84,21.37 52.95,33.39 17.07,12.03 33.5,24.88 49.31,38.56 15.78,13.68 30.83,28.12 45.17,43.32 14.34,15.21 27.87,31.09 40.59,47.66 12.72,16.56 24.59,33.73 35.59,51.49 10.98,17.77 21.03,36.04 30.18,54.82 9.15,18.78 17.33,37.98 24.55,57.58 7.22,19.61 13.43,39.54 18.61,59.76 4.67,18.34 8.38,36.85 11.15,55.57 2.8,18.7 4.66,37.5 5.57,56.4 0.88,18.9 0.81,37.79 -0.21,56.67 -0.98,18.89 -2.93,37.68 -5.84,56.37 -2.87,18.69 -6.69,37.18 -11.46,55.5 -4.77,18.31 -10.43,36.32 -16.98,54.05 -6.58,17.74 -14.03,35.1 -22.35,52.08 -8.3,16.99 -17.45,33.52 -27.44,49.58 -96.22,152.25 -235.71,222.22 -406.12,258.22 -143.37,6.37 -267.47,-1.42 -395.28,-75.92 -145.06,-84.59 -255.01,-228.98 -291.6,-393.54 -33.28,-149.63 0.79,-302.27 87.7,-427.69 97.06,-140.13 242.23,-224.01 407.28,-257.07zm-3042.5 2815.4c386.04,-46.47 708.81,120.25 1017.08,329.24 -277.93,-45.11 -577.36,-38.75 -829.58,100.37 -24.05,13.15 -47.38,27.48 -69.98,43.01 -22.61,15.49 -44.36,32.09 -65.25,49.79 -20.92,17.69 -40.91,36.42 -59.94,56.15 -19.04,19.73 -37.04,40.36 -54,61.89 -16.94,21.53 -32.76,43.87 -47.48,67.04 -14.69,23.14 -28.17,46.95 -40.44,71.45 -12.3,24.51 -23.32,49.55 -33.06,75.14 -9.78,25.62 -18.23,51.67 -25.35,78.12 -85.01,305.12 -8.78,614.85 141.65,884.74 69.87,102.74 149.1,184.35 239.54,268.94 -114.2,-50.53 -214.31,-111.94 -315.52,-185.03 -314.68,-227.19 -628.89,-503.92 -691.08,-907.09 -34.98,-226.71 15.71,-448.12 154.67,-631.68 169.25,-223.54 406.91,-326.14 678.73,-362.1zm-752.33 1906.59c348.32,-47.84 740.98,97.33 1030.37,282.87 -114.79,-22.82 -230.71,-34.64 -347.76,-35.48 -285.97,-1.69 -561.74,74.81 -767.82,281.76 -172.34,173.04 -255.59,426.36 -252.46,667.96 3.42,263.88 147.08,451.59 327.24,627.83 93.38,88.65 204.38,158.37 312.06,227.98 -298.17,-46.37 -589.42,-107.63 -831.22,-300.8 -219.52,-175.4 -337.12,-412.43 -365.37,-690.09 -26.7,-262.26 45.64,-550.33 216.86,-754.24 177.83,-211.74 411.04,-285.87 678.1,-307.79zm1357.77 -3052.27c238.44,-14.72 472.27,66.05 679.37,178.45 247.22,134.16 493.14,359.33 570.32,638.86 23.87,86.44 29.66,179.22 -18.45,258.57 -57.89,95.39 -153.22,136.19 -256.38,163.29 -225.35,21.17 -440.49,-41.19 -636.36,-150.61 -255.48,-142.72 -543.03,-381.91 -622.1,-676.4 -22.71,-84.75 -25.08,-174.21 23.66,-250.6 58.72,-92.18 158.31,-135.58 259.94,-161.56zm987 -2904.59c166.77,-18.76 323.04,-3.28 472.1,81.92 21.28,12.15 41.9,25.32 61.89,39.49 19.97,14.19 39.2,29.31 57.67,45.38 18.51,16.07 36.17,33 53,50.8 16.83,17.8 32.73,36.38 47.74,55.74 15,19.37 29.02,39.42 42.06,60.16 13.08,20.74 25.09,42.06 36.02,63.97 10.93,21.92 20.78,44.31 29.55,67.2 8.73,22.89 16.33,46.13 22.82,69.76 47.22,176.26 16.4,376.23 -76.18,532.89 -113.78,192.38 -289.23,274.09 -495.45,328.54 -166.79,16.05 -321.09,4.12 -472.57,-72.63 -164.78,-83.52 -298.96,-233.05 -355.27,-410.02 -54.63,-171.74 -35.18,-370.15 49.79,-528.84 116.88,-218.3 300.17,-318.43 526.83,-384.37zm-216.41 13817.27c227.66,-23.66 482.88,4.36 704.6,59.78 445.97,111.42 756.97,313.63 1056.35,656.75 103.58,118.67 201.95,239.07 283.03,374.62 -127.87,193.22 -360.21,432.19 -515.69,615.64 -98.95,-1.26 -196.54,-4.83 -295.17,-13.25 -582.47,-40.75 -1225.44,-241.86 -1693.91,-598.56 -159.11,-121.08 -337.77,-292.75 -361.17,-501.86 -1.54,-13.99 -2.38,-28 -2.52,-42.06 -0.14,-14.09 0.41,-28.16 1.63,-42.17 1.23,-13.99 3.13,-27.9 5.73,-41.75 2.6,-13.81 5.85,-27.49 9.78,-41.02 3.95,-13.5 8.55,-26.75 13.77,-39.8 5.26,-13.07 11.13,-25.84 17.62,-38.32 6.52,-12.48 13.62,-24.61 21.29,-36.38 7.71,-11.78 15.97,-23.16 24.77,-34.13 162.52,-199.02 489.24,-255.27 729.89,-277.51zm-1351.16 -2667.98c0,0 234.93,-5.78 234.93,-5.78 163.26,174.14 307.89,364.89 461.58,547.34 0,0 846.29,1009.08 846.29,1009.08 0,0 574.84,699.45 574.84,699.45 117.2,144.23 241.54,287.56 343.02,443.45 -301.07,-123.19 -584.62,-281.77 -888.36,-400.5 -258.83,-93.42 -520.23,-178.92 -784.21,-256.53 -558.43,-158.68 -993.26,-228.7 -1470.51,-608.69 -236.36,-188.24 -550.9,-507.9 -578.31,-826.17 -8.99,-104.47 40.15,-194.95 109.65,-270.66 263.25,-286.6 788.76,-313.16 1151.07,-330.98zm4028.61 -3026.24c30.81,-1.72 61.55,-0.78 92.22,2.84 30.63,3.65 60.75,9.88 90.33,18.71 173.25,52.21 321.15,181.03 406.48,339.4 313.42,581.57 -119.76,1294.26 -358.73,1820.31 -85.91,189.02 -155.22,380.89 -215.47,579.37 -332.66,-303.38 -793.08,-430.57 -1202.52,-594.92 -207.47,-89.23 -401.8,-206.95 -565.95,-363.01 -167.05,-158.89 -318.21,-381.35 -319.73,-620.05 -0.9,-143.11 61.15,-276.56 162.94,-375.67 141.81,-138.07 331.19,-189.44 524.52,-181.82 295.91,11.73 541.13,186.49 737.09,395.34 8.21,-236.12 46.9,-475.26 174.04,-678.79 112.62,-180.18 266.79,-292.6 474.79,-341.7zm-4239.5 7035.19c125.82,-17.25 268.31,-10.1 396.03,-7.32 677.62,14.63 1044.99,154.16 1678.66,348.81 221.62,68.09 448.96,124.04 666.22,204.75 -907.45,181.97 -1604.11,498.07 -2401.3,956.98 -255.84,144.27 -522.25,302.48 -817.17,345.28 -380.45,55.2 -790.04,-89.81 -1092.9,-315.94 -170.7,-127.51 -418.57,-350.97 -444.56,-574.74 -14.41,-124.14 38.46,-245.96 118.75,-338.34 391.93,-450.91 1318.76,-584.78 1896.28,-619.47zm-893.16 -4902.88c103.96,-11.35 214.38,-5.57 319.17,-7.04 -640.68,270.2 -1464.06,341.45 -2032.05,750.5 -129.76,93.44 -221.19,217.95 -243.99,378.99 -26.06,184.02 46.58,364.78 155.53,509.9 176.25,234.72 669.47,562.18 963.92,594.35 37.31,4.04 69.51,5.09 100,-18.2 0.76,-89.43 -581.28,-376.78 -689.72,-791.2 -29.09,-111.14 -13.49,-234.39 46.36,-333.45 231.76,-383.66 1697.12,-813.8 2129.28,-924.11 156.89,186.33 310.78,375.12 461.64,566.37 -192.8,0.21 -392.54,24.29 -581.57,60.73 -290.26,55.94 -670.93,161.04 -842.71,426.09 -78.18,120.62 -89.8,259.42 -59.6,397.6 102.33,468.1 541,805.7 920.03,1050.98 -381.65,-95.38 -830.23,-123.98 -1223.25,-110.78 -674.23,29.75 -1414.66,136.65 -1935.66,607.17 -120.13,108.47 -233.43,245.92 -238.53,415.37 -4.88,161.68 91.24,304.85 196.38,419.25 413.16,449.5 1063.34,580.04 1648.46,607.33 -315.83,169.15 -450.32,260.68 -827.6,239.02 -351.31,-20.14 -752.78,-98.69 -996.59,-375.52 -185.73,-210.84 -243.36,-472.94 -224.55,-748.3 34.96,-511.58 366.99,-941.82 796.81,-1199.99 81.51,-48.95 276.73,-135.03 332.72,-202.69 13.35,-16.15 17.56,-27.45 14.27,-47.95 -17.25,-108 -190.6,-202.9 -274.41,-265.84 -197.37,-148.22 -435.12,-359.9 -465.59,-620.58 -17.92,-153.32 45.11,-287.18 141.78,-402.22 503.88,-599.71 1647.46,-906.41 2409.45,-975.81zm2521.05 -5297.94c273.19,-40.22 598.34,49.47 845.88,159.63 886.05,394.23 1983.62,1692.86 2326.27,2590.43 -136.96,-102.68 -285.65,-175.19 -458.11,-193.65 -221.52,-23.71 -401.59,63.09 -570.11,196.01 -206.05,174.77 -286.66,376.72 -373.78,624.99 -638.04,-691.2 -2276.01,-1725.46 -2402.04,-2667.04 -21.88,-163.47 -1.16,-333.77 105.99,-465.63 130.65,-160.78 328.56,-221.46 525.89,-244.75zm-978.38 -3587.89c236.81,58.6 472.84,162.92 694.62,263.61 1306.99,593.5 2682.59,1739.67 3469.43,2944.57 1152.99,1765.57 1559.68,3763.82 1309.98,5849.8 -46.95,392.29 -123.82,779.21 -205.26,1165.56 -11.15,69.46 -21.03,138.97 -40.7,206.63 -26.03,-23.6 -3.83,-245.9 -1.68,-291.96 44.8,-954.72 -68.83,-1964.85 -295.34,-2893.07 -96.8,-396.76 -226.78,-763.01 -374.78,-1143.15 -28.03,-70.67 -56.78,-141.04 -86.22,-211.11 -29.45,-70.1 -59.61,-139.89 -90.49,-209.36 -30.85,-69.48 -62.41,-138.62 -94.7,-207.43 -32.24,-68.84 -65.2,-137.35 -98.84,-205.52 -33.65,-68.18 -67.99,-136 -103,-203.47 -34.98,-67.47 -70.66,-134.59 -107.06,-201.33 -36.38,-66.77 -73.43,-133.16 -111.14,-199.17 -37.69,-66.01 -76.05,-131.62 -115.1,-196.85 -39.05,-65.24 -78.75,-130.06 -119.09,-194.49 -40.35,-64.43 -81.34,-128.45 -122.99,-192.07 -41.64,-63.59 -83.92,-126.74 -126.82,-189.5 -42.9,-62.77 -86.44,-125.1 -130.6,-186.96 -44.21,-61.87 -89,-123.28 -134.39,-184.24 -45.43,-60.96 -91.46,-121.45 -138.07,-181.5 -46.66,-60.05 -93.91,-119.6 -141.75,-178.66 -47.81,-59.06 -96.24,-117.65 -145.28,-175.77 -49,-58.12 -98.6,-115.72 -148.8,-172.8 -50.2,-57.1 -100.94,-113.7 -152.26,-169.76 -51.36,-56.08 -103.25,-111.62 -155.69,-166.65 -52.48,-55.03 -105.48,-109.52 -159,-163.48 -53.56,-53.96 -107.67,-107.36 -162.32,-160.22 -54.61,-52.87 -109.76,-105.17 -165.46,-156.93 -55.7,-51.74 -111.91,-102.93 -168.63,-153.54 -56.72,-50.61 -113.94,-100.65 -171.66,-150.11 -57.73,-49.45 -115.95,-98.32 -174.67,-146.61 -58.71,-48.28 -117.91,-95.96 -177.61,-143.04 -59.7,-47.09 -119.84,-93.57 -180.45,-139.44 -60.64,-45.87 -121.71,-91.13 -183.23,-135.76 -61.56,-44.64 -123.54,-88.65 -185.98,-132.03 -62.39,-43.38 -125.23,-86.13 -188.54,-128.24 -63.3,-42.12 -127.01,-83.59 -191.12,-124.42 -64.11,-40.83 -128.65,-81 -193.59,-120.53 13.72,-206.36 33.06,-417.18 68.24,-620.99zm-1724.59 11685.69c858.1,-51.42 1739.89,121.93 2540.86,422.16 155.05,58.15 323.62,114.51 466.43,198.69 -192.17,-13.19 -382.72,-9.62 -572.95,22.77 -244.49,41.64 -485.57,138.44 -631.1,350.12 -87.23,126.82 -125.56,284.24 -96.58,436.34 45.27,237.71 235.39,453.86 428.88,588.31 -644.56,-129.71 -1678.4,-40.28 -2298.38,162.25 -378.96,123.83 -952.01,366.52 -1136.72,750.4 -62.62,130.18 -64.54,270.88 -16.16,406.01 111.05,310.1 419.45,549.5 707.7,685.36 232.94,109.84 467.09,148.17 723.44,144.59 781.26,-10.82 1311.31,-443.03 1967.96,-787.46 312,-163.67 645.5,-286.49 977,-403.75 290.29,-83.66 580.21,-167.41 874.12,-237.34 -93.44,136.92 -188.39,270.2 -310.48,383.41 -197.44,182.97 -456.23,326.61 -687.35,463.26 -945.25,558.91 -1904.91,906.45 -3017.9,862.61 -570.85,-22.5 -1093.28,-247.7 -1481.98,-673.22 -143.45,-157.05 -248.58,-342.28 -235,-562.43 40.37,-654.49 941.18,-972.43 1364.1,-1349.31 51.98,-46.32 89.72,-87.18 93.73,-158.47 0,0 -8.3,-17.35 -8.3,-17.35 -39.99,-83.81 -228.05,-74.56 -306.72,-84.65 -385.21,-49.38 -804.82,-184.5 -1109.55,-432.77 -102.99,-83.86 -202.93,-194.06 -213.15,-332.87 -8.68,-117.78 50.7,-220.78 127.31,-305.17 377.71,-415.94 1317.65,-504.07 1850.77,-531.46z"/>
 </g>
</svg>
